<?xml version="1.0" encoding="utf-8"?>
<!-- Generator: Adobe Illustrator 19.2.1, SVG Export Plug-In . SVG Version: 6.00 Build 0)  -->
<svg version="1.1" id="layer" xmlns="http://www.w3.org/2000/svg" xmlns:xlink="http://www.w3.org/1999/xlink" x="0px" y="0px"
	 viewBox="0 0 652 652" style="enable-background:new 0 0 652 652;" xml:space="preserve">
<style type="text/css">
	.st0{fill:#5741D9;}
</style>
<path id="_x23_0da8ffff_1_" class="st0" d="M77,273.7c10.4-0.7,21,1.4,30.3,6.1c13.8,6.8,24.8,19,29.9,33.4
	c2.3,6.4,3.5,13.1,3.5,19.9v25.1c0,1,0,2.1-0.2,3.1c-0.6,2.5-2.4,4.8-4.8,5.9c-1.7,0.8-3.6,0.9-5.3,0.6c-3.8-0.7-6.8-4.3-6.8-8.2
	c0-7.8,0-15.6,0-23.4c0.1-2.2,0.1-4.6-1.1-6.5c-1.9-3.6-6.7-5.3-10.4-3.8c-3.2,1.1-5.5,4.4-5.6,7.8c0,7.9,0,15.8,0,23.7
	c0,1.5,0.1,3-0.4,4.4c-0.8,2.8-3.1,5-5.9,5.8c-3.7,1-7.9-0.6-9.7-4c-1.3-2-1.2-4.5-1.1-6.8c0-7.9,0-15.7,0-23.6
	c-0.1-4-3.4-7.6-7.3-8.1c-2.6-0.4-5.3,0.5-7.2,2.3c-1.7,1.6-2.6,3.9-2.6,6.2v22.9c0,1.9,0.2,3.9-0.5,5.7c-1.1,3.3-4.4,5.7-7.9,5.6
	c-3.6,0.2-7.1-2.3-8.2-5.6c-0.6-1.7-0.5-3.4-0.5-5.2c0-7.9,0-15.8,0-23.7c0-3.9-3.1-7.5-6.9-8.2c-3.5-0.7-7.3,1-9.1,4.2
	c-0.7,1.3-1.1,2.8-1.1,4.3v25.7c0,2.5-1.1,5-3,6.6c-2.9,2.5-7.6,2.7-10.6,0.4c-2.2-1.5-3.5-4.1-3.5-6.8v-26c0-9.8,2.5-19.6,7.2-28.3
	c3.8-7.1,9.1-13.4,15.4-18.4C52.9,279,64.8,274.4,77,273.7L77,273.7z"/>
<path class="st0" d="M310.7,303.8h-13c0.5-9.1,2.4-17.3,10.7-22.5c8.3-5.1,17.4-6.3,26.9-5.5c5.1,0.4,10.2,1.5,14.9,3.7
	c8.3,3.8,12.4,10.3,12.4,19.4c0,16.1,0,32.2,0,48.3c0,5.9,1.2,7,7.1,6.4c0.6-0.1,1.3-0.2,1.9-0.3c0.1,0.3,0.1,0.6,0.1,0.8v9.8
	c-4.7,1.6-9.5,2.1-14.2,0.8c-3.5-1-5.7-3.5-6.9-6.8c-0.6-1.7-1-3.5-1.5-5.4c-0.5,0.6-0.9,1.1-1.4,1.6
	c-10.3,10.4-22.5,14.8-36.9,11.1c-10.2-2.6-17.2-11.9-17.5-22.5c-0.1-3.4,0.2-6.8,1-10.1c1.9-7.6,7.3-12.2,14.1-15.3
	c4.8-2.2,10-2.8,15.2-3.5c6.1-0.8,12.1-1.5,18.2-2.4c4.1-0.6,6.2-2.8,6.8-6.9c1.3-8.3-2.4-13.8-10.4-15.8c-4.8-1.2-9.7-1.4-14.6-0.5
	c-7.2,1.3-11.2,5.4-12.6,12.5C311.1,301.7,310.9,302.7,310.7,303.8L310.7,303.8z M349,319.8c-6,3.2-11.8,4-17.7,4.9
	c-4.9,0.8-9.9,1.5-14.7,3c-6.3,2.1-9.2,7.3-8.6,14.3c0.5,5.8,4.4,10.5,10.7,11.5c9.7,1.6,18.3-1.1,25.1-8.3c2-2.1,3.6-5.1,4-7.9
	C348.7,331.7,348.6,326,349,319.8z M534.3,336.6c-0.3,1.4-0.5,2.6-0.8,3.7c-5.6,17.1-17,24.4-30.8,26c-23.9,2.6-37.6-13-41.1-29.6
	c-2.8-13.2-2.4-26.3,3.4-38.7c5.5-11.7,14.3-19.4,27.4-21.7c15.7-2.8,37.9,5,41.6,29.5c1,6.3,1.2,12.8,1.8,19.4H475
	c0.5,9,1.9,17.4,8.5,23.9c2.7,2.7,6.2,4,10,4.7c12.3,2.2,22.5-3.7,26.5-15.6c0.4-1.3,1-1.7,2.3-1.6
	C526.2,336.6,530.1,336.6,534.3,336.6L534.3,336.6z M475.5,313.6H521c-0.5-5.3-1.4-10.2-3.9-14.8c-2.4-4.4-5.9-7.6-10.7-9.2
	C490.7,284.2,474.5,296.7,475.5,313.6z M567,363.4h-13.8v-85.8h13.1v12c1-1.1,1.6-1.8,2.2-2.5c9.4-10.7,21.2-13.5,34.6-10.2
	c9.3,2.3,14.5,8.9,16.3,18.1c0.7,3.8,1.2,7.7,1.2,11.5c0.1,18.4,0.1,36.8,0.1,55.2c0,0.5-0.1,1-0.1,1.6h-14.1v-2.3
	c0-17.2,0.1-34.4-0.1-51.6c0-3.8-0.6-7.7-1.7-11.4c-1.8-6-6.6-9.2-12.9-9.5c-11.5-0.4-20.6,5.7-23.4,15.9c-1,3.7-1.3,7.6-1.3,11.5
	C567,331,567,346,567,360.9V363.4L567,363.4z M385.1,277.6h13.3V314c0.8-0.8,1.3-1.2,1.8-1.7c10.9-11.1,21.8-22.3,32.7-33.4
	c0.9-1,1.8-1.4,3.2-1.4c5.1,0.1,10.3,0,15.9,0c-0.8,0.8-1.2,1.3-1.7,1.8c-9.6,9.6-19.1,19.3-28.8,28.8c-1.1,1.1-1.1,1.8-0.4,3
	c10.5,16.7,20.9,33.4,31.3,50.1c0.4,0.6,0.7,1.2,1.2,2.1c-0.7,0.1-1.2,0.1-1.8,0.1c-4.8,0-9.5,0-14.3,0c-1.3,0-1.9-0.5-2.6-1.5
	c-8-13.4-16-26.8-24-40.3c-0.4-0.6-0.7-1.2-1.2-1.9c-3.7,3.7-7.3,7.2-10.9,10.9c-0.5,0.5-0.6,1.4-0.6,2.1c0,9.4,0,18.8,0,28.2v2.4
	c-2.6,0-5.2,0-7.7,0c-1.8,0-4.3,0.5-5.3-0.5c-0.9-0.8-0.4-3.4-0.4-5.2v-77.7C385.1,279.4,385.1,278.6,385.1,277.6z M231.6,277.5
	c-10.8,10.7-21.3,21.2-31.9,31.7c11.4,18.2,22.5,36,33.8,54.2c-0.9,0-1.5,0.1-2.1,0.1c-4.6,0-9.3,0-13.9,0c-1.3,0-2.1-0.5-2.8-1.6
	c-8-13.4-16-26.8-24-40.3c-0.3-0.6-0.7-1.1-1.2-1.9c-2,2.1-3.8,4.4-6,6c-4.5,3.4-5.8,7.6-5.5,13.2c0.5,7.3,0.1,14.7,0.1,22v2.4
	h-13.2v-85.7h13.2v35.8c0.3,0.2,0.6,0.4,0.8,0.6c0.4-0.6,0.6-1.3,1-1.8c10.8-11.1,21.7-22.1,32.5-33.3c1-1,1.9-1.5,3.4-1.4
	c4.5,0.1,9,0,13.5,0C230,277.5,230.6,277.5,231.6,277.5L231.6,277.5z M258,291.8c6.7-9.8,13.8-18,27-15.6v14.7
	c-3.5,0.2-7,0.1-10.3,0.8c-8.1,1.7-14.4,9.1-15.7,18.1c-0.2,1.8-0.4,3.6-0.4,5.4c0,15.3,0,30.6,0,45.9v2.4H245v-85.7h13
	C258,282.3,258,286.8,258,291.8L258,291.8z"/>
</svg>
